<svg width="31" height="25" viewBox="0 0 31 25" fill="none" xmlns="http://www.w3.org/2000/svg">
<path fill-rule="evenodd" clip-rule="evenodd" d="M24.0195 8.27781C23.3662 4.84748 21.6242 2.54548 19.4067 1.25599C17.1339 -0.0657055 14.4023 -0.300225 11.9192 0.3461C9.43615 0.992414 7.1698 2.52785 5.83901 4.78776C4.57076 6.94148 4.17462 9.71549 5.20076 12.9246C-1.88926 13.8694 -1.73009 24.339 5.67826 24.8562C5.6882 24.8569 5.69816 24.8573 5.70812 24.8573H22.387C24.5219 24.8725 26.5793 24.0902 28.1479 22.6644C33.2966 18.2114 30.6619 9.37355 24.0195 8.27781ZM6.09124 12.887C5.03962 9.78946 5.4175 7.19353 6.57794 5.2229C7.77827 3.18453 9.84089 1.77317 12.1352 1.17598C14.4295 0.5788 16.9237 0.804073 18.9756 1.99729C21.017 3.18441 22.6615 5.35309 23.2291 8.72871C23.2605 8.9154 23.4106 9.0594 23.5985 9.08303C29.7498 9.8567 32.2453 17.9923 27.5832 22.0191L27.5831 22.019L27.5748 22.0265C26.1663 23.3084 24.3154 24.0138 22.3917 23.9997L22.3885 23.9997H5.7233C-0.764292 23.5327 -0.764387 14.2001 5.72301 13.7328C6.55446 13.7351 7.37023 13.9283 8.10206 14.2974C8.31349 14.4041 8.57134 14.3191 8.67798 14.1077C8.78463 13.8963 8.69968 13.6384 8.48825 13.5318C7.74358 13.1562 6.92694 12.9381 6.09124 12.887Z" fill="#292D32"/>
<path fill-rule="evenodd" clip-rule="evenodd" d="M24.1415 8.69501C24.1455 8.93177 23.9569 9.12699 23.7201 9.13103C22.9113 9.14484 22.1164 9.33812 21.3912 9.69716C21.179 9.80222 20.9218 9.71535 20.8167 9.50313C20.7116 9.29092 20.7985 9.03371 21.0107 8.92865C21.8497 8.5133 22.7695 8.2896 23.7055 8.27362C23.9422 8.26958 24.1374 8.45824 24.1415 8.69501Z" fill="#292D32"/>
<path d="M19.1339 12.7129L16.8391 10.4181C16.5721 10.1507 16.2098 10.0003 15.8319 10H12.4253C12.0473 10 11.6848 10.1502 11.4175 10.4175C11.1502 10.6848 11 11.0473 11 11.4253V17.1267C11 17.5047 11.1502 17.8672 11.4175 18.1345C11.6848 18.4018 12.0473 18.552 12.4253 18.552H18.1267C18.5047 18.552 18.8672 18.4018 19.1345 18.1345C19.4018 17.8672 19.552 17.5047 19.552 17.1267V13.7201C19.5517 13.3422 19.4013 12.9799 19.1339 12.7129ZM14.3258 17.6018V16.6516H16.2262V17.6018H14.3258ZM18.6018 17.1267C18.6018 17.2527 18.5517 17.3735 18.4626 17.4626C18.3735 17.5517 18.2527 17.6018 18.1267 17.6018H17.1764V16.1764C17.1764 16.0504 17.1264 15.9296 17.0373 15.8405C16.9482 15.7514 16.8273 15.7013 16.7013 15.7013H13.8507C13.7247 15.7013 13.6038 15.7514 13.5147 15.8405C13.4256 15.9296 13.3756 16.0504 13.3756 16.1764V17.6018H12.4253C12.2993 17.6018 12.1785 17.5517 12.0894 17.4626C12.0003 17.3735 11.9502 17.2527 11.9502 17.1267V11.4253C11.9502 11.2993 12.0003 11.1785 12.0894 11.0894C12.1785 11.0003 12.2993 10.9502 12.4253 10.9502H13.3756V13.3258C13.3756 13.4518 13.4256 13.5726 13.5147 13.6617C13.6038 13.7508 13.7247 13.8009 13.8507 13.8009H15.7511C15.8771 13.8009 15.998 13.7508 16.0871 13.6617C16.1762 13.5726 16.2262 13.4518 16.2262 13.3258C16.2262 13.1998 16.1762 13.0789 16.0871 12.9898C15.998 12.9007 15.8771 12.8507 15.7511 12.8507H14.3258V10.9502H15.8319C15.9577 10.952 16.0782 11.0012 16.1692 11.088L18.464 13.3828C18.508 13.4272 18.5429 13.4798 18.5665 13.5377C18.5902 13.5956 18.6021 13.6576 18.6018 13.7201V17.1267Z" fill="#292D32"/>
</svg>
